<svg
                  xmlns="http://www.w3.org/2000/svg"
                  width="45"
                  height="45"
                  viewBox="0 0 45 45"
                  fill="none"
                >
                  <path
                    d="M33.7493 11.25C32.6056 11.25 31.5556 10.5938 31.0306 9.58125L29.6806 6.8625C28.8181 5.15625 26.5681 3.75 24.6556 3.75H20.3618C18.4306 3.75 16.1806 5.15625 15.3181 6.8625L13.9681 9.58125C13.4431 10.5938 12.3931 11.25 11.2493 11.25C7.18059 11.25 3.95559 14.6812 4.21809 18.7312L5.19309 34.2188C5.41809 38.0812 7.49934 41.25 12.6743 41.25H32.3243C37.4993 41.25 39.5618 38.0812 39.8056 34.2188L40.7806 18.7312C40.8414 17.7709 40.7045 16.8084 40.3786 15.903C40.0526 14.9977 39.5444 14.1688 38.8854 13.4677C38.2264 12.7665 37.4306 12.2079 36.5472 11.8265C35.6638 11.4451 34.7116 11.2488 33.7493 11.25ZM19.6868 13.5938H25.3118C26.0806 13.5938 26.7181 14.2312 26.7181 15C26.7181 15.7688 26.0806 16.4062 25.3118 16.4062H19.6868C18.9181 16.4062 18.2806 15.7688 18.2806 15C18.2806 14.2312 18.9181 13.5938 19.6868 13.5938ZM22.4993 33.975C19.0118 33.975 16.1618 31.1437 16.1618 27.6375C16.1618 24.1313 18.9931 21.3 22.4993 21.3C26.0056 21.3 28.8368 24.1313 28.8368 27.6375C28.8368 31.1437 25.9868 33.975 22.4993 33.975Z"
                    fill="black"
                  />
                </svg>